<svg width="1200" height="300" viewBox="0 0 1200 300" xmlns="http://www.w3.org/2000/svg">
  <defs>
    <linearGradient id="super-text-grad" x1="0%" y1="0%" x2="100%" y2="100%">
      <stop offset="0%" style="stop-color:#F97316"/>
      <stop offset="100%" style="stop-color:#FDBA74"/>
    </linearGradient>
  </defs>
  <rect x="20" y="20" width="260" height="260" rx="50" ry="50" fill="#F97316"/>
  <path d="
    M 100 70 
    L 100 110 
    L 160 110 
    Q 185 110 185 130 
    Q 185 150 160 150 
    L 130 150 
    Q 95 150 95 180 
    Q 95 215 130 215 
    L 200 215 
    L 200 175 
    L 160 175 
    Q 140 175 140 160 
    Q 140 150 160 150 
    L 180 150 
    Q 215 150 215 120 
    Q 215 85 180 85 
    Z
  " fill="white"/>
  <text x="320" y="200" font-family="system-ui, -apple-system, sans-serif" font-weight="800" font-size="160" fill="url(#super-text-grad)">SUPER</text>
  <text x="750" y="200" font-family="system-ui, -apple-system, sans-serif" font-weight="300" font-size="160" fill="#FAFAFA">IDE</text>
</svg>