<?xml version="1.0" encoding="UTF-8"?>
<svg version="1.1" xmlns="http://www.w3.org/2000/svg" width="1254" height="1254">
<path d="M0 0 C1.33492533 0.12781364 2.66989777 0.25513604 4.00491333 0.38200378 C6.7868942 0.64777458 9.56839963 0.91793011 12.34960938 1.19165039 C15.8356987 1.53460882 19.32255513 1.86880047 22.80977726 2.20001793 C36.63329717 3.51506147 50.42948803 4.94940942 64.20228577 6.72962952 C73.60733603 7.93642695 83.03155972 8.86516099 92.47106934 9.75588989 C97.94385261 10.27326008 103.41532079 10.80414304 108.88671875 11.3359375 C110.05758026 11.44973251 111.22844177 11.56352753 112.43478394 11.68077087 C127.61261457 13.16460287 142.77871887 14.76162854 157.9453125 16.35546875 C158.66353432 16.43093304 159.38175613 16.50639732 160.12174225 16.58414841 C162.2824993 16.81119578 164.44325241 17.03828065 166.60400391 17.26538086 C167.30835194 17.33940911 168.01269997 17.41343737 168.73839188 17.4897089 C169.43755093 17.5631927 170.13670998 17.6366765 170.85705566 17.71238708 C171.55052597 17.78526884 172.24399628 17.8581506 172.95848083 17.93324089 C174.34336249 18.07880735 175.72824004 18.2244128 177.1131134 18.37005806 C185.76286501 19.27957642 194.41354462 20.17910483 203.06640625 21.05859375 C203.97587006 21.15111923 204.88533386 21.24364471 205.82235718 21.338974 C209.82499122 21.74567916 213.82783249 22.15015257 217.83105469 22.55102539 C224.51095268 23.22484171 231.17690697 23.96217495 237.8359375 24.81640625 C245.1302411 25.75080097 252.43302335 26.45783088 259.7578125 27.10546875 C273.43932625 28.34442301 287.09903917 29.76347554 300.7578125 31.23046875 C301.76684631 31.33881042 302.77588013 31.4471521 303.81549072 31.55877686 C305.3340567 31.72183319 305.3340567 31.72183319 306.88330078 31.88818359 C308.91698743 32.10648963 310.95067882 32.32475155 312.984375 32.54296875 C313.98477814 32.65033356 314.98518127 32.75769836 316.01589966 32.86831665 C325.21841054 33.85359679 334.42499477 34.79633168 343.6328125 35.73046875 C359.84786798 37.37683979 376.05306213 39.11083341 392.2578125 40.85546875 C407.43225479 42.48856633 422.60558478 44.11796672 437.79467773 45.60961914 C451.47468278 46.95717859 465.147068 48.37874125 478.8203125 49.79296875 C480.03990662 49.91889404 481.25950073 50.04481934 482.51605225 50.17456055 C486.12013887 50.5467629 489.72414348 50.91975016 493.328125 51.29296875 C494.87140472 51.45230896 494.87140472 51.45230896 496.44586182 51.61486816 C509.53283863 52.97266772 522.61275309 54.39126596 535.6953125 55.79296875 C535.6953125 129.38296875 535.6953125 202.97296875 535.6953125 278.79296875 C516.8853125 276.81296875 498.0753125 274.83296875 478.6953125 272.79296875 C472.2190625 272.11234375 465.7428125 271.43171875 459.0703125 270.73046875 C449.15791328 269.68819641 439.24631113 268.63945812 429.3359375 267.578125 C410.60684917 265.57359752 391.87712406 263.58797973 373.1328125 261.73046875 C360.63626205 260.49169003 348.14208761 259.2338275 335.65261841 257.92532349 C334.0518263 257.75767182 332.45097846 257.59055119 330.85006714 257.42404175 C323.0275161 256.60954916 315.21559406 255.75116403 307.4140625 254.75390625 C300.51877342 253.8735297 293.61731951 253.17588317 286.6953125 252.54296875 C269.00341664 250.87944459 251.33978431 248.95492906 233.67382812 247.03808594 C220.67723667 245.63060649 207.67679346 244.27692951 194.66809082 242.98608398 C184.35094973 241.96169632 174.03640627 240.91339617 163.72265625 239.85546875 C162.49629235 239.72969452 162.49629235 239.72969452 161.24515343 239.60137939 C156.21935778 239.08582583 151.1936245 238.56966641 146.16790771 238.05334473 C142.78845481 237.70624599 139.40896291 237.35952778 136.02947044 237.01281452 C127.86340128 236.17502185 119.69743504 235.336235 111.53160667 234.49609852 C107.09604132 234.03975867 102.66040929 233.58407625 98.22471142 233.12902641 C94.9453138 232.79239478 91.66602382 232.45471952 88.38671875 232.1171875 C87.23711166 231.9994397 86.08750458 231.88169189 84.90306091 231.76037598 C79.21136917 231.17340951 73.52612526 230.55363745 67.84594727 229.86369324 C49.31323178 227.6384893 36.90845618 229.69220685 20.67773438 238.71240234 C17.41375403 240.49151281 14.08858852 242.14325929 10.7578125 243.79296875 C10.09434814 244.12256592 9.43088379 244.45216309 8.74731445 244.79174805 C7.40232496 245.45943984 6.05702826 246.12651316 4.71142578 246.79296875 C1.36845189 248.45109675 -1.96777837 250.12267915 -5.3046875 251.79296875 C-6.63798828 252.45970053 -7.97132162 253.12636718 -9.3046875 253.79296875 C-9.9646875 254.12296875 -10.6246875 254.45296875 -11.3046875 254.79296875 C-17.3046875 257.79296875 -17.3046875 257.79296875 -19.30493164 258.79296875 C-20.63758143 259.45937499 -21.97010112 260.12604148 -23.30249023 260.79296875 C-26.6452607 262.46578339 -29.99020479 264.13394563 -33.33984375 265.79296875 C-39.87854448 269.03697531 -46.37690115 272.333737 -52.8046875 275.79296875 C-63.25367611 281.41038014 -73.85626047 286.67538752 -84.6171875 291.66796875 C-90.65498984 294.47202363 -96.55912475 297.46714074 -102.4296875 300.60546875 C-111.43618401 305.41713314 -120.61515935 309.81637248 -129.83984375 314.19140625 C-141.50709808 319.72833965 -152.97944707 325.58735756 -164.3046875 331.79296875 C-150.9032668 338.62238891 -136.80141159 344.29785177 -122.81616211 349.81201172 C-116.4685811 352.31622484 -110.16229433 354.90971807 -103.8671875 357.54296875 C-94.85431428 361.31241406 -85.83344604 365.06172565 -76.8046875 368.79296875 C-67.00291357 372.8447522 -57.20742548 376.9111808 -47.41992188 380.99731445 C-41.92796167 383.28853167 -36.43145421 385.56837261 -30.9296875 387.8359375 C-28.38795274 388.88394952 -25.84630173 389.93216445 -23.3046875 390.98046875 C-22.3692662 391.36613007 -22.3692662 391.36613007 -21.41494751 391.75958252 C-14.40487299 394.65171239 -7.41838243 397.5802497 -0.4921875 400.66796875 C5.10340645 403.1489212 10.74666622 405.35212308 16.48974609 407.45678711 C23.40120534 410.00934329 30.16400123 412.89134759 36.94140625 415.77734375 C41.50863188 417.72179691 46.09931817 419.60527833 50.6953125 421.48046875 C55.23585067 423.33765671 59.74153761 425.23376861 64.1953125 427.29296875 C68.50409447 429.28361317 72.86441035 431.12380181 77.2578125 432.91796875 C94.82687552 440.0968759 112.26416317 447.59458734 129.70214844 455.08496094 C136.26604799 457.90221791 142.83595427 460.70439052 149.4140625 463.48828125 C150.15099838 463.80026962 150.88793427 464.112258 151.64720154 464.43370056 C155.23668724 465.95302482 158.82689555 467.47060624 162.41821289 468.9855957 C168.95282148 471.74681554 175.45243711 474.56514608 181.8996582 477.52612305 C186.93277581 479.80687121 192.01620247 481.97216672 197.0920105 484.15582275 C209.65025646 489.56144778 222.12913065 495.11879834 234.55371094 500.82592773 C236.54153692 501.72353133 238.54053552 502.58375781 240.55078125 503.4296875 C253.56644627 509.07250376 263.34235552 518.72427494 268.98046875 531.765625 C271.52730607 538.54806274 272.81723376 544.48146808 272.84248352 551.75389099 C272.84616021 552.4424891 272.8498369 553.1310872 272.853625 553.84055191 C272.86461372 556.14167443 272.86849753 558.44275171 272.87231445 560.74389648 C272.87858297 562.39677573 272.88523011 564.04965358 272.89222717 565.70252991 C272.91323189 571.12719753 272.92362937 576.5518653 272.93359375 581.9765625 C272.93764329 583.84876075 272.94176027 585.72095886 272.94594383 587.59315681 C272.96499126 596.39456645 272.97922064 605.19596775 272.9875558 613.99739403 C272.99731295 624.13128352 273.02359451 634.2649537 273.06405669 644.39876598 C273.09430881 652.24700549 273.10903345 660.09518248 273.11233681 667.94347912 C273.11467781 672.62317432 273.12351308 677.30263514 273.14879799 681.98226738 C273.17224208 686.39251902 273.17624702 690.80238469 273.16603661 695.21268272 C273.165545 696.82098939 273.17175299 698.42931613 273.18559265 700.03756332 C273.32118195 716.74469714 269.95642293 732.05293569 258.5078125 744.85546875 C247.13570432 755.58355292 230.9920342 761.1185718 216.92578125 767.41796875 C210.38377234 770.3630009 203.98423769 773.56651065 197.59423828 776.82519531 C194.32146776 778.49313853 191.04089106 780.14542237 187.7578125 781.79296875 C187.09990723 782.12312988 186.44200195 782.45329102 185.76416016 782.79345703 C180.32993899 785.50592977 174.84731818 788.10838482 169.33227539 790.65234375 C162.42021695 793.861608 155.62555676 797.30868976 148.81616211 800.72851562 C145.44456938 802.42071596 142.06984352 804.10663778 138.6953125 805.79296875 C137.36196288 806.45960283 136.02862957 807.12626956 134.6953125 807.79296875 C126.69531247 811.79296876 126.69531247 811.79296876 124.6933136 812.79396057 C123.36663512 813.45730487 122.03996473 814.12066534 120.71330261 814.78404236 C117.27821772 816.50167718 113.84297178 818.21898877 110.4074707 819.93579102 C109.70021851 820.28927612 108.99296631 820.64276123 108.26428223 821.00695801 C106.92856052 821.67454459 105.59279001 822.34203356 104.25695801 823.00939941 C100.37022015 824.95213105 96.48809133 826.90381817 92.60832214 828.86042786 C86.24675254 832.06807478 79.8359206 835.1489631 73.3828125 838.16796875 C66.01485898 841.62211806 58.79882286 845.30821322 51.61450195 849.12792969 C41.33599851 854.59193917 30.94119472 859.76747438 20.3828125 864.66796875 C13.37608864 867.92394434 6.5389388 871.44956892 -0.28173828 875.07714844 C-7.25929971 878.78616066 -14.30692592 882.33677829 -21.38818359 885.84277344 C-24.53123029 887.40108398 -27.66763325 888.97263987 -30.8046875 890.54296875 C-32.12757084 891.20449373 -33.45048902 891.86594904 -34.7734375 892.52734375 C-35.48371094 892.88248047 -36.19398438 893.23761719 -36.92578125 893.60351562 C-83.2734375 916.77734375 -83.2734375 916.77734375 -85.2878418 917.78442383 C-86.62537456 918.45327116 -87.96277833 919.12237651 -89.30004883 919.79174805 C-92.66706406 921.47669932 -96.03633835 923.15683187 -99.41015625 924.828125 C-100.77092443 925.50372279 -102.13160212 926.17950289 -103.4921875 926.85546875 C-104.15774658 927.18514648 -104.82330566 927.51482422 -105.5090332 927.85449219 C-109.74232466 929.966187 -113.87004875 932.21931121 -117.9921875 934.54296875 C-134.68850079 943.50646864 -150.44150612 942.48700636 -168.6796875 940.04296875 C-170.10646292 939.85954446 -171.53338816 939.67728236 -172.96044922 939.49609375 C-175.17858264 939.21431464 -177.39659655 938.93181487 -179.61416626 938.64562988 C-186.8368675 937.7144318 -194.06909326 936.87337721 -201.3034668 936.03866577 C-212.94176111 934.69379398 -224.56393207 933.25801416 -236.1796875 931.73046875 C-245.71080191 930.47807864 -255.24223236 929.33990039 -264.8046875 928.35546875 C-275.99732716 927.2022682 -287.14866166 925.81297085 -298.3046875 924.35546875 C-310.89697388 922.71203885 -323.49254093 921.16656036 -336.1171875 919.79296875 C-349.2509514 918.36294134 -362.37414788 916.86108482 -375.4921875 915.29296875 C-376.38097595 915.1867923 -377.2697644 915.08061584 -378.18548584 914.97122192 C-387.14829724 913.89955703 -396.10999271 912.81886333 -405.0703125 911.7265625 C-405.75655197 911.64290939 -406.44279144 911.55925629 -407.14982605 911.47306824 C-408.16560478 911.34923515 -408.16560478 911.34923515 -409.2019043 911.22290039 C-410.54866343 911.05874061 -411.89542448 910.89459663 -413.2421875 910.73046875 C-413.90723297 910.64940887 -414.57227844 910.568349 -415.25747681 910.48483276 C-427.73630209 908.96575869 -440.22415717 907.53207917 -452.7146759 906.11286926 C-477.75585056 903.26713719 -502.79028875 900.36309929 -527.80737305 897.3125 C-538.95007803 895.95378966 -550.09555625 894.61907393 -561.2421875 893.29296875 C-562.13737091 893.18645996 -563.03255432 893.07995117 -563.9548645 892.97021484 C-576.41820392 891.48791322 -588.88269293 890.01557043 -601.34838867 888.55322266 C-609.73980611 887.56881604 -618.13028305 886.57695815 -626.51953125 885.57421875 C-665.82371722 880.82911507 -665.82371722 880.82911507 -705.1796875 876.54296875 C-706.34733643 876.42272339 -706.34733643 876.42272339 -707.53857422 876.30004883 C-711.16599278 875.94262065 -714.6481173 875.79296875 -718.3046875 875.79296875 C-718.3046875 805.17296875 -718.3046875 734.55296875 -718.3046875 661.79296875 C-695.02199074 663.90957755 -695.02199074 663.90957755 -686.73046875 665.296875 C-681.46020319 666.06007195 -676.16313036 666.48626671 -670.86021423 666.96002197 C-664.4291602 667.55159241 -658.03939865 668.31810911 -651.640625 669.1875 C-640.46545468 670.6741345 -629.27310174 671.94912811 -618.06762695 673.18286133 C-598.28780776 675.3658193 -578.53961304 677.73679521 -558.8046875 680.29296875 C-540.82076928 682.62178942 -522.82843851 684.7956482 -504.8046875 686.79296875 C-480.69562229 689.46580714 -456.64057181 692.50101852 -432.58389282 695.60641479 C-421.62284606 697.0173214 -410.65251778 698.34807553 -399.67675781 699.63916016 C-397.89543457 699.85064697 -397.89543457 699.85064697 -396.078125 700.06640625 C-395.07185059 700.18419434 -394.06557617 700.30198242 -393.02880859 700.42333984 C-390.3046875 700.79296875 -390.3046875 700.79296875 -388.04370117 701.28515625 C-383.958624 702.04252861 -379.84500682 702.30456926 -375.70703125 702.64453125 C-362.38223552 703.80059788 -349.13284675 705.47710028 -335.8671875 707.16796875 C-333.37666836 707.48233805 -330.88610809 707.79638158 -328.39550781 708.11010742 C-314.22621654 709.89810472 -300.06308749 711.73089895 -285.90209961 713.58325195 C-278.48125331 714.54311254 -271.05913942 715.37905074 -263.60864258 716.07104492 C-259.03424683 716.50027004 -254.47699045 717.00664485 -249.91796875 717.578125 C-248.81050293 717.71661865 -247.70303711 717.8551123 -246.56201172 717.99780273 C-244.42096009 718.26878007 -242.28059028 718.54522784 -240.14111328 718.82836914 C-224.01352262 720.86632687 -213.08477938 718.08395576 -198.1796875 711.98046875 C-191.04091071 709.08894485 -183.9049248 706.21211231 -176.6796875 703.54296875 C-169.95091731 701.05143353 -163.28641446 698.41798831 -156.6328125 695.73242188 C-151.7131026 693.74720337 -146.7905008 691.76923091 -141.8671875 689.79296875 C-140.8676001 689.38981445 -139.8680127 688.98666016 -138.83813477 688.57128906 C-133.10298564 686.26964972 -127.34516421 684.04426335 -121.5546875 681.88671875 C-113.24344311 678.78970105 -104.98986331 675.55487081 -96.7421875 672.29296875 C-95.35225891 671.74467666 -93.96228497 671.19649948 -92.57226562 670.6484375 C-82.1619317 666.54099519 -71.76488663 662.40039799 -61.38647461 658.21289062 C-55.05415627 655.65799895 -48.70492798 653.17283318 -42.3046875 650.79296875 C-35.31348979 648.19241489 -28.38288458 645.45779628 -21.46630859 642.6640625 C-17.10368943 640.9060068 -12.73478192 639.16361802 -8.3671875 637.41796875 C-6.62888468 636.72271017 -4.89060159 636.02740226 -3.15234375 635.33203125 C-1.86979167 634.81901042 -0.58723958 634.30598958 0.6953125 633.79296875 C-1.81603364 631.28162261 -4.09502863 630.63268208 -7.4296875 629.41796875 C-11.15425868 628.02431083 -14.78680043 626.65005076 -18.3046875 624.79296875 C-21.51722231 623.10019792 -24.79744536 621.81404682 -28.19921875 620.546875 C-35.2499595 617.86036249 -42.11827827 614.83720999 -48.9921875 611.73046875 C-56.0169257 608.56399981 -63.03496258 605.44646899 -70.20678711 602.62670898 C-72.7561726 601.61354112 -75.25237104 600.50675988 -77.7421875 599.35546875 C-78.66128906 598.93394531 -79.58039062 598.51242187 -80.52734375 598.078125 C-82.3492004 597.23509991 -84.16957048 596.38885312 -85.98828125 595.5390625 C-90.68685202 593.36367197 -95.39010239 591.35243089 -100.2421875 589.54296875 C-105.67348685 587.48719657 -110.95716747 585.19840223 -116.2421875 582.79296875 C-124.76755654 578.91471622 -133.33457042 575.13867837 -141.9296875 571.41796875 C-142.56807556 571.14158569 -143.20646362 570.86520264 -143.86419678 570.58044434 C-154.9685177 565.77678183 -166.10463041 561.04993971 -177.25390625 556.3515625 C-182.03430768 554.3351271 -186.80196819 552.2907675 -191.56518555 550.23413086 C-200.14870439 546.52868613 -208.77032727 542.94991388 -217.47216797 539.53051758 C-222.81667561 537.42368901 -228.07098134 535.16093474 -233.3046875 532.79296875 C-245.74430013 527.19744955 -258.2665105 521.82098487 -270.8359375 516.5234375 C-276.60498003 514.09154058 -282.36408657 511.63731392 -288.1171875 509.16796875 C-288.97111084 508.8016333 -289.82503418 508.43529785 -290.70483398 508.05786133 C-294.86566746 506.27193099 -299.02510221 504.48278209 -303.18359375 502.69140625 C-314.32531567 497.89755547 -325.50206414 493.19116334 -336.69311523 488.51397705 C-346.33221713 484.48342615 -355.93169176 480.3718216 -365.50292969 476.18212891 C-371.62350619 473.50807998 -377.77468751 470.92576474 -383.95874023 468.40258789 C-392.25276996 465.01151092 -400.482888 461.47390205 -408.70458984 457.91162109 C-411.23826135 456.82154759 -413.78004692 455.75279362 -416.32421875 454.6875 C-424.45756551 451.24119463 -431.77494073 447.91175244 -438.3046875 441.79296875 C-439.1709375 441.02984375 -440.0371875 440.26671875 -440.9296875 439.48046875 C-453.15274133 425.64911836 -456.07547863 411.26761594 -455.95166016 393.34960938 C-455.95845672 391.66878825 -455.96737116 389.9879746 -455.97821045 388.30717468 C-456.0007685 383.79253889 -455.99226604 379.27848215 -455.97631502 374.76383781 C-455.96353277 370.00811232 -455.97542997 365.25243184 -455.98324585 360.4967041 C-455.9923069 352.51480332 -455.98044815 344.53313492 -455.95654297 336.55126953 C-455.92933855 327.3624943 -455.93815524 318.17427406 -455.965675 308.98551226 C-455.98846669 301.05374719 -455.99151727 293.12214783 -455.97848165 285.19036055 C-455.97074212 280.47164807 -455.96949213 275.75319525 -455.98616409 271.03450012 C-456.0007572 266.5952222 -455.99032074 262.15665006 -455.96169281 257.71744728 C-455.95516032 256.10193355 -455.95684265 254.48635895 -455.96800613 252.87087059 C-456.05896046 238.35476576 -453.75256689 224.37648673 -444.3046875 212.79296875 C-443.76972656 212.09816406 -443.23476563 211.40335938 -442.68359375 210.6875 C-432.08300854 197.63874268 -414.0495479 191.08783691 -399.26806641 183.76660156 C-396.19296333 182.24166858 -393.12394907 180.70461613 -390.0546875 179.16796875 C-384.95283454 176.61378605 -379.84708797 174.06759428 -374.73828125 171.52734375 C-363.35686536 165.86149963 -351.99837969 160.16781254 -340.76904297 154.20410156 C-333.98804581 150.60687437 -327.13512267 147.16641868 -320.25634766 143.76074219 C-317.60489094 142.4459593 -314.95809815 141.12193977 -312.31152344 139.79736328 C-310.30846139 138.79485753 -308.30462429 137.79391231 -306.30078125 136.79296875 C-303.64435955 135.46508209 -300.99101824 134.13129889 -298.33984375 132.79296875 C-291.60179009 129.39781901 -284.83783285 126.09103716 -277.9921875 122.91796875 C-271.07791322 119.70442608 -264.33096102 116.22896733 -257.60229492 112.64501953 C-251.87997269 109.60277227 -246.11114659 106.67108531 -240.3046875 103.79296875 C-233.67400374 100.50374716 -227.09452665 97.13434278 -220.5546875 93.66796875 C-211.56509692 88.90438018 -202.48453367 84.3449128 -193.36621094 79.83398438 C-185.45872586 75.91797218 -177.60392085 71.92095903 -169.8046875 67.79296875 C-162.00420037 63.66431486 -154.1478993 59.66779644 -146.23876953 55.75195312 C-143.00643162 54.14924885 -139.78084968 52.53305866 -136.5546875 50.91796875 C-132.21300983 48.74444788 -127.86905087 46.57576204 -123.51953125 44.41796875 C-114.34109339 39.85749982 -105.22360339 35.20407047 -96.16870117 30.40283203 C-90.60660641 27.45958821 -85.00088364 24.62041638 -79.36010742 21.83154297 C-74.96479199 19.64889844 -70.6188939 17.38521085 -66.28662109 15.08007812 C-59.307571 11.36730798 -52.30343603 7.72141711 -45.1796875 4.29296875 C-44.51783447 3.96683594 -43.85598145 3.64070312 -43.17407227 3.3046875 C-29.42734274 -3.20100199 -14.74972122 -1.46036545 0 0 Z " fill="#FC7003" transform="translate(718.3046875,129.20703125)"/>
<path d="M0 0 C-2.73935781 3.30963305 -6.3987852 4.8632372 -10.1875 6.6875 C-11.65628389 7.40878516 -13.12503304 8.13014107 -14.59375 8.8515625 C-15.33753906 9.21411133 -16.08132813 9.57666016 -16.84765625 9.95019531 C-27.74941459 15.267523 -38.53890092 20.8038033 -49.3125 26.375 C-51.05406372 27.27520874 -51.05406372 27.27520874 -52.83081055 28.19360352 C-57.9883676 30.86523874 -63.14272632 33.54126512 -68.27319336 36.26464844 C-81.39001571 43.22195563 -94.64704211 49.88150735 -107.9375 56.5 C-110.12965221 57.59355975 -112.32171 58.68730878 -114.51367188 59.78125 C-119.28310781 62.16111831 -124.05341838 64.53922208 -128.8245697 66.91564941 C-129.5424617 67.27348511 -130.2603537 67.6313208 -131 68 C-132.07263847 68.53465378 -132.07263847 68.53465378 -133.16694641 69.08010864 C-135.06908031 70.03466695 -136.94982356 71.0228426 -138.828125 72.0234375 C-139.54613281 72.405 -140.26414062 72.7865625 -141.00390625 73.1796875 C-142.48588562 73.96835826 -143.96766095 74.75741258 -145.44921875 75.546875 C-149.71863819 77.81476625 -154.00937125 80.01881155 -158.35620117 82.13500977 C-160.13487582 83.01388148 -160.13487582 83.01388148 -162.0625 84.5625 C-164.24174393 86.1793584 -166.51930577 87.08347441 -169.00952148 88.12817383 C-173.11454138 89.92616549 -177.06769475 92.05377743 -181.0390625 94.12695312 C-185.30086077 96.30310301 -189.35614832 97.8329904 -194 99 C-194 99.66 -194 100.32 -194 101 C-195.09699219 101.47050781 -196.19398438 101.94101562 -197.32421875 102.42578125 C-198.77872539 103.05450348 -200.23314806 103.68342 -201.6875 104.3125 C-202.7693457 104.7755957 -202.7693457 104.7755957 -203.87304688 105.24804688 C-212.49170909 108.80839706 -212.49170909 108.80839706 -218 116 C-218.71401232 119.19395026 -218.71401232 119.19395026 -219 122 C-219.33 122 -219.66 122 -220 122 C-220 119 -220 116 -220 113 C-220.62648438 113.5775 -221.25296875 114.155 -221.8984375 114.75 C-222.71570313 115.4925 -223.53296875 116.235 -224.375 117 C-225.18710937 117.7425 -225.99921875 118.485 -226.8359375 119.25 C-229 121 -229 121 -231 121 C-230.29283426 115.99459247 -227.08585419 114.14622565 -223.2578125 111.20703125 C-216.84217615 106.86070686 -209.92027972 103.46244919 -203 100 C-201.63661411 99.31140506 -200.27332986 98.62260884 -198.91015625 97.93359375 C-195.59024595 96.26183122 -192.26215179 94.607056 -188.93115234 92.95751953 C-185.86673159 91.43809371 -182.80851673 89.90626316 -179.75 88.375 C-174.64814671 85.82081796 -169.54240047 83.27462553 -164.43359375 80.734375 C-153.05217786 75.06853088 -141.69369219 69.37484379 -130.46435547 63.41113281 C-123.68335831 59.81390562 -116.83043517 56.37344993 -109.95166016 52.96777344 C-107.30020344 51.65299055 -104.65341065 50.32897102 -102.00683594 49.00439453 C-100.00377389 48.00188878 -97.99993679 47.00094356 -95.99609375 46 C-93.33967205 44.67211334 -90.68633074 43.33833014 -88.03515625 42 C-81.29710259 38.60485026 -74.53314535 35.29806841 -67.6875 32.125 C-60.77472023 28.91215193 -54.02905274 25.43773995 -47.30200195 21.85424805 C-40.71734827 18.35325025 -34.06429212 15.00634186 -27.37792969 11.7043457 C-23.23437855 9.64932414 -19.12793457 7.5492559 -15.06640625 5.3359375 C-13.89585693 4.69990601 -13.89585693 4.69990601 -12.70166016 4.05102539 C-11.22637069 3.24402265 -9.75570274 2.42849479 -8.29052734 1.60327148 C-3.32908229 -1.1096941 -3.32908229 -1.1096941 0 0 Z " fill="#FA4F00" transform="translate(508,220)"/>
<path d="M0 0 C-1 3 -1 3 -3.59423828 4.54296875 C-4.74134277 5.08566406 -5.88844727 5.62835937 -7.0703125 6.1875 C-8.00692719 6.63590492 -8.00692719 6.63590492 -8.96246338 7.09336853 C-11.01219801 8.07191514 -13.06842388 9.03592616 -15.125 10 C-16.54423655 10.6742568 -17.96301657 11.34947535 -19.38134766 12.02563477 C-22.23809993 13.38579833 -25.09734433 14.74048285 -27.95898438 16.09033203 C-32.49675763 18.23189273 -37.01988266 20.40350962 -41.54248047 22.5769043 C-47.56906693 25.47176435 -53.59996073 28.35630658 -59.6640625 31.171875 C-66.87365975 34.52090077 -73.95010303 37.99389819 -80.93139648 41.79638672 C-87.51265784 45.34401135 -94.26772503 48.5138712 -101.0222168 51.71533203 C-110.59200947 56.25881198 -120.06291984 60.98893857 -129.52392578 65.75390625 C-133.78231623 67.89695741 -138.04797109 70.0254513 -142.31298828 72.15527344 C-145.50206908 73.74859072 -148.68875325 75.34638245 -151.87109375 76.953125 C-159.26882582 80.68184653 -166.70354397 84.32211225 -174.1875 87.875 C-175.39079956 88.4472229 -175.39079956 88.4472229 -176.6184082 89.03100586 C-180.3728679 90.80439913 -184.11673899 92.52140362 -188 94 C-187.74111938 92.14489746 -187.74111938 92.14489746 -187 90 C-185.33236694 88.74865723 -185.33236694 88.74865723 -183.14208984 87.68164062 C-181.91478653 87.07080627 -181.91478653 87.07080627 -180.66268921 86.44763184 C-179.77111115 86.02147583 -178.87953308 85.59531982 -177.9609375 85.15625 C-176.58961166 84.47979431 -176.58961166 84.47979431 -175.19058228 83.78967285 C-172.25835689 82.34649036 -169.31716574 80.92279157 -166.375 79.5 C-163.45636493 78.07320812 -160.53968422 76.64250297 -157.62368774 75.21032715 C-155.80809304 74.32030831 -153.99061292 73.43412212 -152.17098999 72.55236816 C-147.33335706 70.1990541 -142.65352724 67.6977395 -138 65 C-132.78987081 62.58790315 -127.46001443 60.7457189 -122 59 C-122 58.34 -122 57.68 -122 57 C-121.30777344 56.731875 -120.61554688 56.46375 -119.90234375 56.1875 C-113.14361188 53.48044534 -106.77179969 50.36285224 -100.38769531 46.890625 C-87.68228044 40 -87.68228044 40 -84 40 C-84 39.34 -84 38.68 -84 38 C-79.63799813 35.55302334 -75.97306516 34.49730652 -71 34 C-71 33.34 -71 32.68 -71 32 C-69.02 31.67 -67.04 31.34 -65 31 C-65 30.34 -65 29.68 -65 29 C-64.48727539 28.75878418 -63.97455078 28.51756836 -63.44628906 28.26904297 C-51.3568022 22.58926186 -51.3568022 22.58926186 -39.375 16.6875 C-26.1117688 10 -26.1117688 10 -23 10 C-23 9.34 -23 8.68 -23 8 C-3.38297872 0 -3.38297872 0 0 0 Z " fill="#FB4F00" transform="translate(965,880)"/>
<path d="M0 0 C0.66 0.33 1.32 0.66 2 1 C2 60.07 2 119.14 2 180 C-1 177 -1 177 -1.3719368 173.94022465 C-1.37047024 172.67242381 -1.36900368 171.40462297 -1.36749268 170.09840393 C-1.37076152 169.39220836 -1.37403036 168.68601279 -1.37739825 167.95841736 C-1.38469587 165.58607506 -1.37050613 163.21434585 -1.35644531 160.84204102 C-1.35723596 159.14367569 -1.35933251 157.44531053 -1.36264038 155.74694824 C-1.3677826 151.12915002 -1.35422209 146.51157395 -1.33711338 141.89381146 C-1.3220966 137.06568261 -1.32325184 132.23755687 -1.32244873 127.40940857 C-1.3187538 119.29951172 -1.30377619 111.18969938 -1.28125 103.07983398 C-1.25238698 92.6673072 -1.24202793 82.25484855 -1.2375679 71.84228611 C-1.23358794 62.89641891 -1.22108494 53.95056654 -1.20722103 45.00470996 C-1.20312159 42.12651335 -1.20019615 39.24831726 -1.19742584 36.37011909 C-1.19253181 31.84839228 -1.18232657 27.32670673 -1.16798782 22.80500031 C-1.16346564 21.14413513 -1.16062635 19.48326441 -1.15958023 17.82239342 C-1.15783373 15.55774742 -1.14994868 13.29320452 -1.14044189 11.02857971 C-1.13746723 9.76040185 -1.13449257 8.49222399 -1.13142776 7.18561649 C-1.02402186 4.58225474 -0.77685705 2.4682334 0 0 Z " fill="#FC5B00" transform="translate(264,363)"/>
<path d="M0 0 C-1.8871875 0.5878125 -1.8871875 0.5878125 -3.8125 1.1875 C-7.49865035 2.40850113 -10.98205562 3.85763104 -14.5 5.5 C-22.14257684 9.04453773 -29.75022366 11.34224353 -38 13 C-38 13.66 -38 14.32 -38 15 C-40.64 15.33 -43.28 15.66 -46 16 C-46 16.66 -46 17.32 -46 18 C-47.65 18 -49.3 18 -51 18 C-51 18.66 -51 19.32 -51 20 C-52.7015625 20.4640625 -52.7015625 20.4640625 -54.4375 20.9375 C-57.78775099 21.62924531 -57.78775099 21.62924531 -59 23 C-60.66617115 23.04063832 -62.33388095 23.042721 -64 23 C-64 23.66 -64 24.32 -64 25 C-64.72598389 25.20681396 -65.45196777 25.41362793 -66.19995117 25.62670898 C-76.13194053 28.55981563 -85.68787908 32.25963866 -95.3125 36.0625 C-97.08286773 36.75792507 -98.85337911 37.45298454 -100.62402344 38.14770508 C-106.41914421 40.42389878 -112.2099566 42.71092653 -118 45 C-119.04371765 45.41254028 -120.0874353 45.82508057 -121.16278076 46.25012207 C-131.71551937 50.42182367 -142.26662566 54.59760271 -152.81330872 58.78459167 C-155.57428707 59.87927665 -158.33676827 60.97008504 -161.09960938 62.06005859 C-164.12853147 63.25529716 -167.15071587 64.46467912 -170.16601562 65.69384766 C-171.91688477 66.39646729 -171.91688477 66.39646729 -173.703125 67.11328125 C-175.15960449 67.70749878 -175.15960449 67.70749878 -176.64550781 68.3137207 C-179 69 -179 69 -182 68 C-179.62806117 65.24965848 -177.4957328 64.25926529 -174.07421875 63.1171875 C-166.864705 60.62199671 -159.82532334 57.75064217 -152.75585938 54.88671875 C-146.27044521 52.27301135 -139.75330137 49.7689776 -133.2013855 47.32876587 C-125.57559427 44.48163006 -118.0067246 41.49357903 -110.4375 38.5 C-109.04757141 37.95170791 -107.65759747 37.40353073 -106.26757812 36.85546875 C-95.8572442 32.74802644 -85.46019913 28.60742924 -75.08178711 24.41992188 C-68.74946877 21.8650302 -62.40024048 19.37986443 -56 17 C-50.8920656 15.09997384 -45.80978719 13.15110526 -40.75 11.125 C-39.53570313 10.63902344 -38.32140625 10.15304687 -37.0703125 9.65234375 C-34.01278458 8.41937071 -30.97045294 7.15261753 -27.9296875 5.87890625 C-26.61145996 5.33435791 -26.61145996 5.33435791 -25.26660156 4.77880859 C-23.55367374 4.07115727 -21.84440445 3.35455836 -20.13964844 2.62744141 C-13.55533444 -0.07583118 -7.02376448 -2.06969553 0 0 Z " fill="#FB5000" transform="translate(732,763)"/>
<path d="M0 0 C0.33 0 0.66 0 1 0 C1.86342704 32.12415891 2.24318258 64.24173425 2.28926277 96.37733459 C2.30012929 103.86567206 2.32509326 111.35366897 2.36874419 118.84188986 C2.4026745 124.87756599 2.41439301 130.91308934 2.41844749 136.9488678 C2.42327512 139.47162581 2.43477763 141.99438132 2.45348549 144.51707458 C2.59306873 164.49498568 1.61827343 182.31104323 -13 197.5 C-16.4142778 200.87050501 -19.62819425 203.01743693 -24 205 C-24 204.34 -24 203.68 -24 203 C-25.32 203.33 -26.64 203.66 -28 204 C-27.505 203.01 -27.505 203.01 -27 202 C-26.34 202 -25.68 202 -25 202 C-25 199.69 -25 197.38 -25 195 C-24.67 195 -24.34 195 -24 195 C-24 196.65 -24 198.3 -24 200 C-17.0794255 197.88145679 -13.97403913 193.91615431 -10 188 C-9.67 187.34 -9.34 186.68 -9 186 C-8.34 186 -7.68 186 -7 186 C-6.566875 184.4221875 -6.566875 184.4221875 -6.125 182.8125 C-5 179 -5 179 -3.9375 176.625 C-1.6516844 170.22471633 -1.83545631 162.98941952 -1.70336914 156.25146484 C-1.68410055 155.41420994 -1.66483196 154.57695503 -1.64497948 153.71432877 C-1.58270671 150.92161185 -1.52723816 148.12881473 -1.47265625 145.3359375 C-1.45223833 144.35098675 -1.43182041 143.366036 -1.41078377 142.35123825 C-0.86402281 115.79926717 -0.67798277 89.24271308 -0.48259032 62.68629527 C-0.43197637 55.82449507 -0.37754301 48.96272642 -0.32291877 42.10095716 C-0.21128081 28.06733448 -0.1040297 14.03368105 0 0 Z " fill="#FD6200" transform="translate(989,677)"/>
<path d="M0 0 C7.6772536 -0.17383724 15.075664 0.31272729 22.6875 1.28515625 C23.79907471 1.42152496 24.91064941 1.55789368 26.0559082 1.69839478 C29.70469534 2.14719106 33.35229923 2.60496573 37 3.0625 C39.5728198 3.38009887 42.14573844 3.69689792 44.71875 4.01293945 C48.72986837 4.5056526 52.74096131 4.9985262 56.75170898 5.49424744 C71.16199589 7.27435651 85.58056586 8.9831652 100 10.6875 C102.49195219 10.98267282 104.98389565 11.27791939 107.47583008 11.57324219 C117.88307062 12.80616206 128.29069628 14.03576003 138.69921875 15.2578125 C139.49127716 15.35083145 140.28333557 15.4438504 141.09939575 15.53968811 C144.56939495 15.94705025 148.03948605 16.35357553 151.50976562 16.75854492 C160.34581258 17.79284658 169.17369316 18.88619558 178 20 C178 20.66 178 21.32 178 22 C174.25575982 23.24808006 171.25799598 22.6818811 167.44140625 22.14453125 C166.6785733 22.04307297 165.91574036 21.94161469 165.12979126 21.83708191 C163.47567105 21.61674254 161.82193478 21.39350594 160.16854858 21.16772461 C155.71601863 20.56081029 151.26035903 19.97786172 146.8046875 19.39453125 C145.89355698 19.27490021 144.98242645 19.15526917 144.04368591 19.03201294 C135.43658272 17.90997787 126.81676079 16.93375605 118.1875 16 C105.05352517 14.57205226 91.93048097 13.06837028 78.8125 11.5 C77.48430237 11.34123383 77.48430237 11.34123383 76.12927246 11.17926025 C61.59467891 9.44012073 47.06253403 7.6806179 32.53125 5.9140625 C21.68904248 4.59654967 10.84462185 3.2974682 0 2 C0 1.34 0 0.68 0 0 Z " fill="#FD5C00" transform="translate(264,1033)"/>
<path d="M0 0 C0.99 0.495 0.99 0.495 2 1 C0.18849293 6.43452122 -6.13914692 8.41574899 -11 11 C-12.32249448 11.6075063 -13.65365796 12.19735305 -15 12.75 C-17.95128205 13.83525641 -17.95128205 13.83525641 -20 15.5 C-22.20389347 17.1529201 -24.483588 18.07109478 -27.01171875 19.13037109 C-31.11673382 20.92581113 -35.06862712 23.05426416 -39.0390625 25.12695312 C-43.30086077 27.30310301 -47.35614832 28.8329904 -52 30 C-52 30.66 -52 31.32 -52 32 C-53.09699219 32.47050781 -54.19398438 32.94101562 -55.32421875 33.42578125 C-56.77872539 34.05450348 -58.23314806 34.68342 -59.6875 35.3125 C-60.7693457 35.7755957 -60.7693457 35.7755957 -61.87304688 36.24804688 C-70.49170909 39.80839706 -70.49170909 39.80839706 -76 47 C-76.71401232 50.19395026 -76.71401232 50.19395026 -77 53 C-77.33 53 -77.66 53 -78 53 C-78 50 -78 47 -78 44 C-78.62648438 44.5775 -79.25296875 45.155 -79.8984375 45.75 C-80.71570313 46.4925 -81.53296875 47.235 -82.375 48 C-83.59316406 49.11375 -83.59316406 49.11375 -84.8359375 50.25 C-87 52 -87 52 -89 52 C-88.29283426 46.99459247 -85.08585419 45.14622565 -81.2578125 42.20703125 C-74.84217615 37.86070686 -67.92027972 34.46244919 -61 31 C-59.63661411 30.31140506 -58.27332986 29.62260884 -56.91015625 28.93359375 C-53.59024595 27.26183122 -50.26215179 25.607056 -46.93115234 23.95751953 C-43.8667316 22.43809372 -40.80851483 20.90626695 -37.75 19.375 C-33.07557962 17.03474419 -28.39848053 14.69997891 -23.71798706 12.37188721 C-21.14536495 11.09186203 -18.57355775 9.8102044 -16.00183105 8.52838135 C-14.7107667 7.8853684 -13.41934478 7.24307287 -12.12756348 6.60150146 C-10.30418471 5.69579884 -8.48214196 4.78740801 -6.66015625 3.87890625 C-5.59418213 3.3485376 -4.52820801 2.81816895 -3.42993164 2.27172852 C-1.11438756 1.21392485 -1.11438756 1.21392485 0 0 Z " fill="#F54001" transform="translate(366,289)"/>
<path d="M0 0 C0 0.66 0 1.32 0 2 C-15.12619967 9.87173078 -30.26330269 17.70995514 -45.55419922 25.25854492 C-51.63873559 28.2743807 -57.65757778 31.39632216 -63.65625 34.578125 C-75.62083721 40.9132901 -87.75193516 46.91303038 -99.875 52.9375 C-104.33189283 55.15261952 -108.78742772 57.37043825 -113.2421875 59.58984375 C-114.250466 60.08983383 -115.25874451 60.58982391 -116.2975769 61.10496521 C-117.70657761 61.80698814 -117.70657761 61.80698814 -119.14404297 62.52319336 C-120.37379349 63.13414101 -120.37379349 63.13414101 -121.62838745 63.75743103 C-123.3474709 64.65811767 -125.02743659 65.63475983 -126.67849731 66.65480042 C-129 68 -129 68 -131 68 C-129.64051755 63.92155264 -127.06686227 63.14349288 -123.4375 61.3125 C-122.43082275 60.79030884 -122.43082275 60.79030884 -121.40380859 60.25756836 C-116.00690022 57.47140031 -110.56705312 54.76777201 -105.12475586 52.0715332 C-100.20577115 49.62777068 -95.34547622 47.08609672 -90.5 44.5 C-83.05126424 40.52813337 -75.53077277 36.72100691 -67.96630859 32.97509766 C-64.72329837 31.36688027 -61.48690037 29.74547022 -58.25 28.125 C-53.9083226 25.9514786 -49.56436336 23.78279329 -45.21484375 21.625 C-35.89622588 16.99485732 -26.63167 12.28095544 -17.44213867 7.39892578 C-15.29772942 6.26020487 -13.14972227 5.128654 -11 4 C-10.26845703 3.61166992 -9.53691406 3.22333984 -8.78320312 2.82324219 C-8.07615234 2.45618164 -7.36910156 2.08912109 -6.640625 1.7109375 C-5.69751465 1.2166626 -5.69751465 1.2166626 -4.73535156 0.71240234 C-3 0 -3 0 0 0 Z " fill="#FD5B00" transform="translate(640,152)"/>
<path d="M0 0 C3 1 3 1 4.87280273 3.34375 C10.84269561 10.79840793 20.79543126 14.5037489 29.4375 18 C30.51700928 18.44786865 31.59651855 18.8957373 32.70874023 19.35717773 C35.76975221 20.62575328 38.83423628 21.88516248 41.90075684 23.14031982 C48.30671472 25.76368195 54.70657607 28.40172223 61.10305786 31.0480957 C63.5427632 32.0543595 65.9859286 33.051857 68.42944336 34.04882812 C69.93357258 34.66892749 71.4375668 35.28935446 72.94140625 35.91015625 C73.64121613 36.19302994 74.341026 36.47590363 75.06204224 36.76734924 C79.88631575 38.77263149 79.88631575 38.77263149 81 41 C80.34 41 79.68 41 79 41 C78.505 41.99 78.505 41.99 78 43 C72.26014701 40.60254604 66.52084054 38.20378953 60.78198242 35.80395508 C58.84006559 34.99209558 56.89801381 34.1805588 54.95581055 33.36938477 C50.21061423 31.38740103 45.46773463 29.40022914 40.72900391 27.40283203 C36.89776829 25.7890907 33.05590863 24.20529717 29.20458984 22.64013672 C27.34853969 21.87359784 25.4925791 21.10684204 23.63671875 20.33984375 C22.37986015 19.8394735 22.37986015 19.8394735 21.09761047 19.32899475 C13.29985611 16.07478677 6.70981941 11.24261567 1 5 C0.25 2.25 0.25 2.25 0 0 Z " fill="#FD870F" transform="translate(291,350)"/>
<path d="M0 0 C0.495 1.485 0.495 1.485 1 3 C0.01902344 3.4846875 -0.96195313 3.969375 -1.97265625 4.46875 C-8.72611372 7.81886371 -15.43964033 11.21020133 -22.0625 14.8125 C-29.39556577 18.78449438 -36.91063618 22.35236816 -44.44384766 25.92626953 C-52.04723911 29.53434008 -59.58819652 33.24891212 -67.09960938 37.04394531 C-69.08876969 38.04465854 -71.08273866 39.03520114 -73.078125 40.0234375 C-73.75842773 40.36101074 -74.43873047 40.69858398 -75.13964844 41.04638672 C-76.48871609 41.71577389 -77.83831324 42.38409512 -79.18847656 43.05126953 C-82.41252106 44.65689169 -85.58958696 46.30946129 -88.71875 48.09375 C-90.43578125 49.06828125 -90.43578125 49.06828125 -92.1875 50.0625 C-93.19167969 50.65160156 -94.19585938 51.24070312 -95.23046875 51.84765625 C-98.36846997 53.15331261 -99.81059072 53.02037774 -103 52 C-99.2440786 48.57068046 -94.76533255 47.43570917 -90 46 C-90 45.34 -90 44.68 -90 44 C-87.7101766 42.9955866 -85.4183401 41.99632388 -83.125 41 C-82.47402344 40.71382813 -81.82304688 40.42765625 -81.15234375 40.1328125 C-76.2265625 38 -76.2265625 38 -74 38 C-74 37.34 -74 36.68 -74 36 C-73.319375 35.731875 -72.63875 35.46375 -71.9375 35.1875 C-63.85685602 31.92085669 -56.10418131 28.13431907 -48.34423828 24.18603516 C-45.79658619 22.89708558 -43.24106767 21.62481502 -40.68359375 20.35546875 C-31.23440646 15.66269472 -21.81776765 10.93216402 -12.54125977 5.90454102 C-8.44025249 3.69670906 -4.3059753 1.77795109 0 0 Z " fill="#FB5000" transform="translate(652,408)"/>
<path d="M0 0 C0.99 0.495 0.99 0.495 2 1 C-1.81146103 5.2750171 -5.4058673 7.4286168 -10.625 9.6875 C-17.042628 12.58018847 -23.29636782 15.67322122 -29.5 19 C-35.43062727 22.1683268 -41.39301873 25.1863984 -47.5 28 C-53.66351314 30.84185935 -59.69266791 33.88017648 -65.6875 37.0625 C-66.48172363 37.48321777 -67.27594727 37.90393555 -68.09423828 38.33740234 C-69.65232833 39.16329632 -71.21027436 39.98946206 -72.76806641 40.81591797 C-73.50460449 41.20666504 -74.24114258 41.59741211 -75 42 C-75.69915527 42.37141113 -76.39831055 42.74282227 -77.11865234 43.12548828 C-79.03204442 44.13611855 -80.95209933 45.1326103 -82.875 46.125 C-83.94492187 46.68445313 -85.01484375 47.24390625 -86.1171875 47.8203125 C-89.01573621 49.00643948 -90.90799352 49.26242121 -94 49 C-89.96604364 45.47816701 -85.7847534 43.22835518 -81 40.9375 C-75.54048785 38.30485515 -75.54048785 38.30485515 -70.25390625 35.34765625 C-67.5781499 33.74776727 -64.90841953 32.82299897 -61.96484375 31.84375 C-59.93875802 31.06758387 -59.93875802 31.06758387 -58.20703125 29.63671875 C-55.25654259 27.44865725 -52.03921057 25.91583141 -48.75 24.3125 C-47.30723866 23.6003678 -45.86453183 22.88812515 -44.421875 22.17578125 C-43.68646484 21.81436035 -42.95105469 21.45293945 -42.19335938 21.08056641 C-38.78769785 19.40275497 -35.39418442 17.70087474 -32 16 C-30.6771486 15.33841115 -29.35423161 14.67695344 -28.03125 14.015625 C-27.37253906 13.68626953 -26.71382812 13.35691406 -26.03515625 13.01757812 C-11.71875 5.859375 -11.71875 5.859375 -9.89453125 4.95507812 C-8.52944414 4.26690534 -7.17367622 3.56013465 -5.82421875 2.84179688 C-5.10878906 2.46603516 -4.39335938 2.09027344 -3.65625 1.703125 C-3.00462891 1.35411133 -2.35300781 1.00509766 -1.68164062 0.64550781 C-1.12669922 0.43249023 -0.57175781 0.21947266 0 0 Z " fill="#FC5E00" transform="translate(776,971)"/>
<path d="M0 0 C7.25284788 -0.16924579 14.2142538 0.48695956 21.40625 1.390625 C22.59319458 1.53528702 23.78013916 1.67994904 25.00305176 1.82899475 C28.83603937 2.29736789 32.66803156 2.77336633 36.5 3.25 C39.12625104 3.57357535 41.75255333 3.89673505 44.37890625 4.21948242 C48.28764801 4.69993041 52.19632931 5.18082206 56.10473633 5.66398621 C63.43109121 6.56843554 70.75954683 7.44683177 78.09375 8.28515625 C79.65040516 8.46504355 81.20704655 8.64505006 82.76367188 8.82519531 C84.8609426 9.06780865 86.95830507 9.30790985 89.05688477 9.53894043 C90.91377142 9.7436682 92.76944107 9.95934983 94.625 10.17578125 C95.62789062 10.28833252 96.63078125 10.40088379 97.6640625 10.5168457 C100 11 100 11 102 13 C98.90878695 14.03040435 97.54133076 13.99780873 94.37792969 13.6262207 C92.96516754 13.46508286 92.96516754 13.46508286 91.52386475 13.3006897 C90.50020813 13.17696991 89.47655151 13.05325012 88.421875 12.92578125 C87.35487366 12.80190033 86.28787231 12.67801941 85.1885376 12.55038452 C81.70821431 12.14436045 78.22913075 11.72860856 74.75 11.3125 C72.36853712 11.0325543 69.98702655 10.75301403 67.60546875 10.47387695 C53.53782888 8.81719402 39.47780098 7.10394347 25.44042969 5.20629883 C19.14159478 4.36166125 12.9100187 3.7384006 6.55859375 3.45239258 C3.6382651 2.93604057 2.20180202 1.94114751 0 0 Z " fill="#FD5900" transform="translate(451,1055)"/>
<path d="M0 0 C0.66 0.33 1.32 0.66 2 1 C0.97834361 3.8726933 0.25225341 4.85917819 -2.45166016 6.36865234 C-3.47050293 6.77035645 -4.4893457 7.17206055 -5.5390625 7.5859375 C-7.23530762 8.26571655 -7.23530762 8.26571655 -8.96582031 8.95922852 C-10.17334961 9.42643311 -11.38087891 9.8936377 -12.625 10.375 C-13.84799805 10.85960693 -15.07099609 11.34421387 -16.33105469 11.84350586 C-19.88146842 13.24475021 -23.43896316 14.62601162 -27 16 C-27.90008789 16.34981934 -28.80017578 16.69963867 -29.72753906 17.06005859 C-48.5205057 24.34610181 -48.5205057 24.34610181 -57 24 C-54.23776722 21.23776722 -51.79293383 21.42143709 -48 21 C-48 20.34 -48 19.68 -48 19 C-46.72491577 18.50971313 -46.72491577 18.50971313 -45.42407227 18.00952148 C-42.18835803 16.76424119 -38.95321413 15.51750589 -35.71859741 14.26937866 C-34.28563664 13.71650499 -32.85255221 13.16395169 -31.41934204 12.61172485 C-22.43524346 9.14802692 -13.46777717 5.66315751 -4.64868164 1.79272461 C-3.12189732 1.13914733 -1.56349953 0.56009181 0 0 Z " fill="#FD8C14" transform="translate(782,738)"/>
<path d="M0 0 C-3.45260165 2.83357458 -7.258901 4.74182117 -11.25 6.6875 C-12.68621654 7.39709772 -14.1224139 8.10673426 -15.55859375 8.81640625 C-16.29319824 9.17750488 -17.02780273 9.53860352 -17.78466797 9.91064453 C-21.29894857 11.63873799 -24.80682156 13.37953362 -28.3125 15.125 C-28.98224854 15.45685303 -29.65199707 15.78870605 -30.34204102 16.13061523 C-34.19935322 18.05427297 -37.95232914 20.09551014 -41.6875 22.25 C-55.34402816 29.68793052 -69.20196668 30.80392688 -84.27734375 27.6328125 C-86 27 -86 27 -87 25 C-83.09726683 24.931531 -79.48981783 24.9274344 -75.625 25.5 C-62.08766753 27.36721827 -51.46674997 23.64132567 -39.53125 17.421875 C-38.48851929 16.89104309 -37.44578857 16.36021118 -36.37145996 15.81329346 C-33.07590335 14.13522852 -29.78724732 12.44427834 -26.5 10.75 C-22.14111857 8.5042477 -17.77586901 6.27164794 -13.40625 4.046875 C-12.40630005 3.52615417 -11.4063501 3.00543335 -10.37609863 2.46893311 C-8.98820129 1.76259735 -8.98820129 1.76259735 -7.57226562 1.04199219 C-6.75939087 0.62246277 -5.94651611 0.20293335 -5.10900879 -0.22930908 C-3 -1 -3 -1 0 0 Z " fill="#FD5C00" transform="translate(641,1042)"/>
<path d="M0 0 C-1 3 -1 3 -3.62597656 4.55883789 C-4.78581055 5.10789795 -5.94564453 5.65695801 -7.140625 6.22265625 C-7.7711377 6.52478027 -8.40165039 6.8269043 -9.05126953 7.13818359 C-11.11286097 8.12309895 -13.1810233 9.09320649 -15.25 10.0625 C-16.6640997 10.7322262 -18.0778357 11.40272087 -19.49121094 12.07397461 C-21.62198343 13.08526243 -23.75329025 14.09530074 -25.88677979 15.10084534 C-30.1568751 17.1146109 -34.39995657 19.17397027 -38.625 21.28125 C-39.58760742 21.7568335 -40.55021484 22.23241699 -41.54199219 22.72241211 C-43.31313258 23.5988807 -45.07965703 24.48475571 -46.84082031 25.38110352 C-47.62038086 25.76194092 -48.39994141 26.14277832 -49.203125 26.53515625 C-49.86989258 26.869104 -50.53666016 27.20305176 -51.22363281 27.54711914 C-51.80983398 27.69656982 -52.39603516 27.84602051 -53 28 C-53.99 27.34 -54.98 26.68 -56 26 C-54.66610628 23.33221255 -53.31021572 23.01624266 -50.625 21.7578125 C-49.72136719 21.33113281 -48.81773437 20.90445313 -47.88671875 20.46484375 C-46.93410156 20.02269531 -45.98148438 19.58054687 -45 19.125 C-44.07832031 18.69058594 -43.15664063 18.25617187 -42.20703125 17.80859375 C-39.47702734 16.52637753 -36.74046101 15.25969592 -34 14 C-33.13375 13.60006836 -32.2675 13.20013672 -31.375 12.78808594 C-30.570625 12.42231445 -29.76625 12.05654297 -28.9375 11.6796875 C-28.22464844 11.35468262 -27.51179687 11.02967773 -26.77734375 10.69482422 C-25 10 -25 10 -23 10 C-23 9.34 -23 8.68 -23 8 C-3.38297872 0 -3.38297872 0 0 0 Z " fill="#EE3902" transform="translate(965,880)"/>
<path d="M0 0 C0.33 0 0.66 0 1 0 C1.24708234 6.43634381 1.45862241 12.87319586 1.64697266 19.31152344 C1.71488631 21.49570378 1.79055157 23.67965886 1.87451172 25.86328125 C2.55858344 43.86343342 1.95258178 60.39405773 -10.3984375 74.796875 C-14.65860072 79.2233509 -18.36431263 82.44428131 -24 85 C-24 84.34 -24 83.68 -24 83 C-25.98 83.495 -25.98 83.495 -28 84 C-27.505 83.01 -27.505 83.01 -27 82 C-26.34 82 -25.68 82 -25 82 C-25 79.69 -25 77.38 -25 75 C-24.67 75 -24.34 75 -24 75 C-24 76.65 -24 78.3 -24 80 C-17.0794255 77.88145679 -13.97403913 73.91615431 -10 68 C-9.67 67.34 -9.34 66.68 -9 66 C-8.34 66 -7.68 66 -7 66 C-6.71125 64.948125 -6.4225 63.89625 -6.125 62.8125 C-5 59 -5 59 -3.99755859 56.57128906 C0.3809894 45.28522263 -0.56754071 32.16345615 -0.375 20.25 C-0.33674006 18.28123424 -0.29768393 16.31248378 -0.2578125 14.34375 C-0.16269568 9.56262695 -0.0783527 4.78142595 0 0 Z " fill="#FA5200" transform="translate(989,797)"/>
<path d="M0 0 C-1.258125 0.391875 -2.51625 0.78375 -3.8125 1.1875 C-7.49865035 2.40850113 -10.98205562 3.85763104 -14.5 5.5 C-22.14257684 9.04453773 -29.75022366 11.34224353 -38 13 C-38 13.66 -38 14.32 -38 15 C-41.96 15.495 -41.96 15.495 -46 16 C-46 16.66 -46 17.32 -46 18 C-49.96 18.495 -49.96 18.495 -54 19 C-54 18.01 -54 17.02 -54 16 C-52.88367188 15.59910156 -51.76734375 15.19820312 -50.6171875 14.78515625 C-49.03605975 14.21203593 -47.45536689 13.63771506 -45.875 13.0625 C-45.03275879 12.75618652 -44.19051758 12.44987305 -43.32275391 12.13427734 C-38.55483972 10.37850451 -33.83852516 8.53998523 -29.15625 6.56640625 C-28.19219238 6.16091553 -27.22813477 5.7554248 -26.23486328 5.33764648 C-24.36946095 4.54667386 -22.50819915 3.74584263 -20.65185547 2.93383789 C-13.8672252 0.0595393 -7.29171924 -2.13789696 0 0 Z " fill="#F44502" transform="translate(732,763)"/>
<path d="M0 0 C0.66 0.33 1.32 0.66 2 1 C2 1.99 2 2.98 2 4 C0.94683594 4.4846875 -0.10632813 4.969375 -1.19140625 5.46875 C-8.56246675 8.88586628 -15.85622294 12.37700099 -23 16.25 C-31.59771835 20.87988592 -31.59771835 20.87988592 -35.1875 22.625 C-35.84105469 22.94726562 -36.49460937 23.26953125 -37.16796875 23.6015625 C-39.67856392 24.1475768 -40.86713581 23.31471451 -43 22 C-37.75741484 18.88535757 -32.95324421 16.39331247 -27 15 C-27 14.34 -27 13.68 -27 13 C-22.63799813 10.55302334 -18.97306516 9.49730652 -14 9 C-14 8.34 -14 7.68 -14 7 C-12.02 6.67 -10.04 6.34 -8 6 C-8 5.34 -8 4.68 -8 4 C-6.71349294 3.30289269 -5.42059335 2.61757124 -4.125 1.9375 C-3.40570312 1.55464844 -2.68640625 1.17179688 -1.9453125 0.77734375 C-0.98238281 0.39255859 -0.98238281 0.39255859 0 0 Z " fill="#F74401" transform="translate(908,905)"/>
<path d="M0 0 C0 0.66 0 1.32 0 2 C-1.21582764 2.47421387 -2.43165527 2.94842773 -3.68432617 3.43701172 C-8.20377901 5.19981636 -12.72312176 6.96290311 -17.24243164 8.72607422 C-19.19682877 9.48852078 -21.15125558 10.25089129 -23.10571289 11.01318359 C-25.91821002 12.11015044 -28.73059961 13.20739257 -31.54296875 14.3046875 C-32.41398727 14.6443454 -33.2850058 14.9840033 -34.18241882 15.33395386 C-35.41312859 15.81422531 -35.41312859 15.81422531 -36.66870117 16.30419922 C-37.81177986 16.74806473 -37.81177986 16.74806473 -38.97795105 17.20089722 C-40.60645445 17.84447293 -42.22002825 18.52575803 -43.828125 19.21875 C-46.10506441 20.03779295 -47.79815931 20.23208917 -50.20703125 20.1953125 C-50.95791016 20.18886719 -51.70878906 20.18242188 -52.48242188 20.17578125 C-53.25134766 20.15902344 -54.02027344 20.14226563 -54.8125 20.125 C-55.99489258 20.11146484 -55.99489258 20.11146484 -57.20117188 20.09765625 C-59.13424666 20.07422504 -61.0671638 20.03835838 -63 20 C-62.67 19.34 -62.34 18.68 -62 18 C-59.73303162 17.80300826 -57.46038496 17.67179476 -55.1875 17.5625 C-40.61627116 16.36202488 -26.88422963 9.33903126 -13.65087891 3.52978516 C-12.59690918 3.07265137 -11.54293945 2.61551758 -10.45703125 2.14453125 C-9.52479736 1.73178955 -8.59256348 1.31904785 -7.63208008 0.89379883 C-4.91257564 -0.02968747 -2.84933263 -0.17689513 0 0 Z " fill="#FD5C00" transform="translate(548,832)"/>
<path d="M0 0 C4.43613114 0.6720122 8.32482637 2.27755829 12.40625 4.0625 C13.12020432 4.3700975 13.83415863 4.67769501 14.56974792 4.99461365 C16.8818023 5.99191794 19.19088702 6.99590667 21.5 8 C23.0828826 8.6841533 24.66597256 9.36782706 26.24926758 10.05102539 C29.38411251 11.40433628 32.51793473 12.75997062 35.65087891 14.11767578 C41.32257297 16.57442373 47.00445105 19.00714168 52.6875 21.4375 C54.33730316 22.14438288 55.98705076 22.85139548 57.63671875 23.55859375 C58.74660156 24.03425781 59.85648437 24.50992188 61 25 C61 25.33 61 25.66 61 26 C56.2901986 26.47098014 53.45969279 25.40282409 49.34375 23.18359375 C46.75917573 21.87838374 44.15345608 20.87918902 41.4375 19.875 C31.97979919 16.31863777 22.77347594 12.16562011 13.52441406 8.10449219 C10.35699083 6.71866794 7.1805106 5.35548223 4 4 C4 3.34 4 2.68 4 2 C2.68 1.34 1.36 0.68 0 0 Z " fill="#FD6300" transform="translate(369,610)"/>
<path d="M0 0 C0 0.99 0 1.98 0 3 C-1.24394531 3.21785156 -2.48789062 3.43570313 -3.76953125 3.66015625 C-9.83983983 5.01109398 -15.14509335 7.68246053 -20.6875 10.4375 C-21.69361328 10.92798828 -22.69972656 11.41847656 -23.73632812 11.92382812 C-28.88447136 14.42701594 -28.88447136 14.42701594 -33.97119141 17.05126953 C-35.28755114 17.75314184 -36.63997783 18.38700132 -38 19 C-38.66 18.67 -39.32 18.34 -40 18 C-37.96259298 15.81246826 -36.04639955 14.31489855 -33.41015625 12.9140625 C-32.7138208 12.5428125 -32.01748535 12.1715625 -31.30004883 11.7890625 C-30.56165771 11.40492188 -29.8232666 11.02078125 -29.0625 10.625 C-28.30412842 10.22796875 -27.54575684 9.8309375 -26.7644043 9.421875 C-8.54608513 0 -8.54608513 0 0 0 Z " fill="#FC5D00" transform="translate(692,128)"/>
<path d="M0 0 C13.77332564 0.54269897 27.34382699 2.16687563 41 4 C41 4.66 41 5.32 41 6 C33.21204855 6.20162981 25.66664936 5.4122122 17.9375 4.5 C16.69033203 4.35691406 15.44316406 4.21382812 14.15820312 4.06640625 C11.10491668 3.71545379 8.05224532 3.3598759 5 3 C5 2.34 5 1.68 5 1 C3.35 1 1.7 1 0 1 C0 0.67 0 0.34 0 0 Z " fill="#FD6200" transform="translate(146,1019)"/>
<path d="M0 0 C0.680625 0.70125 1.36125 1.4025 2.0625 2.125 C7.52802542 7.54472493 13.08166803 11.84220576 19.765625 15.703125 C21.54902874 16.73824745 23.28427933 17.85618622 25 19 C24.34 19.66 23.68 20.32 23 21 C13.64238587 16.22499316 4.28743724 11.4254316 -1 2 C-0.67 1.34 -0.34 0.68 0 0 Z " fill="#FD5A00" transform="translate(274,561)"/>
<path d="M0 0 C-4.01933164 3.50222465 -8.17851865 5.76917472 -12.9375 8.0625 C-13.97293945 8.57006836 -13.97293945 8.57006836 -15.02929688 9.08789062 C-16.38389752 9.75170914 -17.74110355 10.41024198 -19.10107422 11.06298828 C-20.84638175 11.92419814 -22.55279465 12.86307794 -24.25390625 13.80859375 C-27 15 -27 15 -29.375 14.6875 C-29.91125 14.460625 -30.4475 14.23375 -31 14 C-24.26928567 9.92077919 -17.4409937 6.08793387 -10.4375 2.5 C-9.74720703 2.13777344 -9.05691406 1.77554687 -8.34570312 1.40234375 C-3.35128579 -1.11709526 -3.35128579 -1.11709526 0 0 Z " fill="#FD6100" transform="translate(730,371)"/>
<path d="M0 0 C10.40798659 0.56825214 20.67275755 1.60222605 31 3 C31 3.99 31 4.98 31 6 C27.06554398 5.64474524 23.13317782 5.27199102 19.2019043 4.88305664 C17.20774621 4.68946548 15.21226178 4.50969941 13.21679688 4.33007812 C11.96318359 4.20439453 10.70957031 4.07871094 9.41796875 3.94921875 C8.26063232 3.83924561 7.1032959 3.72927246 5.91088867 3.6159668 C2.88264947 2.97516771 1.84548164 2.41950392 0 0 Z " fill="#FD5F00" transform="translate(216,1027)"/>
<path d="M0 0 C0.33 0.66 0.66 1.32 1 2 C1.99 2 2.98 2 4 2 C3.11223998 5.69900008 2.05418136 9.34550461 1 13 C0.67 13 0.34 13 0 13 C0 10 0 7 0 4 C-0.62648438 4.5775 -1.25296875 5.155 -1.8984375 5.75 C-2.71570313 6.4925 -3.53296875 7.235 -4.375 8 C-5.59316406 9.11375 -5.59316406 9.11375 -6.8359375 10.25 C-9 12 -9 12 -11 12 C-10.67567593 8.93617261 -10.01098513 8.01029035 -7.71484375 5.859375 C-6.79832031 5.16328125 -5.88179688 4.4671875 -4.9375 3.75 C-4.01839844 3.04359375 -3.09929687 2.3371875 -2.15234375 1.609375 C-1.44207031 1.07828125 -0.73179687 0.5471875 0 0 Z " fill="#FB5B00" transform="translate(288,329)"/>
<path d="M0 0 C3.91815131 0.44617926 7.83415564 0.9090414 11.75 1.375 C12.86117187 1.50132812 13.97234375 1.62765625 15.1171875 1.7578125 C16.18710938 1.88671875 17.25703125 2.015625 18.359375 2.1484375 C19.34389648 2.26364746 20.32841797 2.37885742 21.34277344 2.49755859 C23.90497266 2.98203177 25.75163718 3.70789108 28 5 C25.13864519 6.4306774 23.06415229 5.81123274 19.8984375 5.44140625 C18.08085937 5.23354492 18.08085937 5.23354492 16.2265625 5.02148438 C14.32003906 4.79428711 14.32003906 4.79428711 12.375 4.5625 C10.456875 4.34110352 10.456875 4.34110352 8.5 4.11523438 C5.33266806 3.74886389 2.16609507 3.37688599 -1 3 C-0.67 2.01 -0.34 1.02 0 0 Z " fill="#FD6200" transform="translate(110,1014)"/>
<path d="M0 0 C0.66 0.99 1.32 1.98 2 3 C1.40703125 3.68449219 0.8140625 4.36898438 0.203125 5.07421875 C-2.15111974 8.20068915 -3.66260996 11.2408724 -5.25 14.8125 C-5.77078125 15.97394531 -6.2915625 17.13539063 -6.828125 18.33203125 C-7.21484375 19.21246094 -7.6015625 20.09289062 -8 21 C-8.99 20.67 -9.98 20.34 -11 20 C-8.41070739 12.44119548 -4.8166259 6.35902858 0 0 Z " fill="#FB5F00" transform="translate(276,339)"/>
<path d="M0 0 C-1 3 -1 3 -2.73413086 4.16674805 C-3.47026611 4.52808838 -4.20640137 4.88942871 -4.96484375 5.26171875 C-5.76470703 5.65810547 -6.56457031 6.05449219 -7.38867188 6.46289062 C-8.22978516 6.86701172 -9.07089844 7.27113281 -9.9375 7.6875 C-10.77474609 8.10322266 -11.61199219 8.51894531 -12.47460938 8.94726562 C-18.70539563 12 -18.70539563 12 -21 12 C-19.84127746 8.52383239 -19.38476605 8.36445019 -16.2890625 6.73828125 C-15.53882813 6.34189453 -14.78859375 5.94550781 -14.015625 5.53710938 C-12.83226562 4.93092773 -12.83226562 4.93092773 -11.625 4.3125 C-10.84382812 3.89677734 -10.06265625 3.48105469 -9.2578125 3.05273438 C-3.40297876 0 -3.40297876 0 0 0 Z " fill="#FD5B00" transform="translate(680,1021)"/>
<path d="M0 0 C2.68826864 0.11490912 5.37513469 0.24163199 8.0625 0.375 C8.81466797 0.4059375 9.56683594 0.436875 10.34179688 0.46875 C15.18107584 0.72014111 19.4289923 1.34754208 24 3 C24.33 3.66 24.66 4.32 25 5 C21.58285781 4.6925646 18.16639063 4.37816912 14.75 4.0625 C13.78191406 3.97548828 12.81382812 3.88847656 11.81640625 3.79882812 C10.88183594 3.71181641 9.94726562 3.62480469 8.984375 3.53515625 C8.12553711 3.456604 7.26669922 3.37805176 6.38183594 3.29711914 C4.18358411 3.02290097 2.13281455 2.58933034 0 2 C0 1.34 0 0.68 0 0 Z " fill="#FD5E00" transform="translate(188,1024)"/>
<path d="M0 0 C6.20477864 1.93624298 12.10825719 4.25609141 18 7 C18 7.33 18 7.66 18 8 C11.78226091 7.71214171 6.11901733 6.78702812 1 3 C0.67 2.01 0.34 1.02 0 0 Z " fill="#FD5E00" transform="translate(537,681)"/>
<path d="M0 0 C3.05383204 1.52691602 3.38086503 3.95216256 4.625 7.0625 C5.07101562 8.16722656 5.51703125 9.27195312 5.9765625 10.41015625 C6.31429688 11.26480469 6.65203125 12.11945312 7 13 C6.01 13.33 5.02 13.66 4 14 C0.75099398 9.02495953 -0.49940808 6.11774896 0 0 Z " fill="#FB5600" transform="translate(267,547)"/>
<path d="M0 0 C3.90829085 0.5647301 5.89920223 2.42131971 8.75 5.0625 C9.54921875 5.79597656 10.3484375 6.52945313 11.171875 7.28515625 C11.77515625 7.85105469 12.3784375 8.41695312 13 9 C12.67 9.66 12.34 10.32 12 11 C11.01 11 10.02 11 9 11 C7.26776336 9.05651499 5.60118397 7.05279996 4 5 C3.34 4.34 2.68 3.68 2 3 C1.34 2.01 0.68 1.02 0 0 Z " fill="#FD8002" transform="translate(965,637)"/>
<path d="M0 0 C5.34844008 0.53484401 9.35796103 2.46690767 14 5 C13.34 5.66 12.68 6.32 12 7 C6.62532694 6.57568371 3.58627916 3.76559312 0 0 Z " fill="#FE7D05" transform="translate(853,588)"/>
<path d="M0 0 C5.06998019 0.65419099 9.41990777 2.8546409 14 5 C14 5.33 14 5.66 14 6 C8.72250715 5.46148032 4.74354436 4.22656164 0 2 C0 1.34 0 0.68 0 0 Z " fill="#FD5D00" transform="translate(430,636)"/>
<path d="M0 0 C1.17175781 0.22042969 2.34351563 0.44085938 3.55078125 0.66796875 C5.32001953 0.98701172 5.32001953 0.98701172 7.125 1.3125 C8.48044922 1.58126953 8.48044922 1.58126953 9.86328125 1.85546875 C9.20328125 2.51546875 8.54328125 3.17546875 7.86328125 3.85546875 C4.60546875 3.83203125 4.60546875 3.83203125 0.73828125 3.48046875 C-0.54304688 3.36960937 -1.824375 3.25875 -3.14453125 3.14453125 C-4.13195313 3.04914063 -5.119375 2.95375 -6.13671875 2.85546875 C-4.19240295 0.06885007 -3.47559087 -0.16014553 0 0 Z " fill="#FC5A00" transform="translate(1220.13671875,401.14453125)"/>
<path d="M0 0 C3.96 0.33 7.92 0.66 12 1 C11.01 1.495 11.01 1.495 10 2 C10 2.66 10 3.32 10 4 C6.37 3.67 2.74 3.34 -1 3 C-0.67 2.01 -0.34 1.02 0 0 Z " fill="#FC5E00" transform="translate(1023,161)"/>
<path d="M0 0 C1.48199902 0.44909061 2.96055236 0.90956564 4.4375 1.375 C5.26121094 1.63023437 6.08492187 1.88546875 6.93359375 2.1484375 C9 3 9 3 10 5 C9.34 5.66 8.68 6.32 8 7 C5.36 5.68 2.72 4.36 0 3 C0 2.01 0 1.02 0 0 Z " fill="#FD6100" transform="translate(712,756)"/>
<path d="M0 0 C3.3 0.33 6.6 0.66 10 1 C10.33 1.99 10.66 2.98 11 4 C6.48382401 4.07654536 2.40914783 4.10228696 -2 3 C-1.34 2.67 -0.68 2.34 0 2 C0 1.34 0 0.68 0 0 Z " fill="#FC6000" transform="translate(891,147)"/>
<path d="M0 0 C2.15973378 3.23960066 2.75921963 5.14751405 3 9 C2.01 9.99 1.02 10.98 0 12 C-0.66 8.37 -1.32 4.74 -2 1 C-1.34 0.67 -0.68 0.34 0 0 Z " fill="#FD8406" transform="translate(987,663)"/>
<path d="M0 0 C5.94 2.475 5.94 2.475 12 5 C10.02 5.99 10.02 5.99 8 7 C5.859375 6.171875 5.859375 6.171875 3.75 4.75 C3.04359375 4.29109375 2.3371875 3.8321875 1.609375 3.359375 C1.07828125 2.91078125 0.5471875 2.4621875 0 2 C0 1.34 0 0.68 0 0 Z " fill="#FD5800" transform="translate(331,593)"/>
<path d="M0 0 C1.45945288 0.08708669 2.91765868 0.19526907 4.375 0.3125 C5.59316406 0.39951172 5.59316406 0.39951172 6.8359375 0.48828125 C9 1 9 1 11 4 C2.42857143 4.28571429 2.42857143 4.28571429 -1 2 C-0.67 1.34 -0.34 0.68 0 0 Z " fill="#FC6100" transform="translate(156,809)"/>
<path d="M0 0 C-6.59090909 5 -6.59090909 5 -10 5 C-9 2 -9 2 -6.125 0.25 C-3 -1 -3 -1 0 0 Z " fill="#FD5A00" transform="translate(683,395)"/>
<path d="M0 0 C2.64 0.33 5.28 0.66 8 1 C8 1.99 8 2.98 8 4 C4.7 3.67 1.4 3.34 -2 3 C-1.34 2.67 -0.68 2.34 0 2 C0 1.34 0 0.68 0 0 Z " fill="#FD5D00" transform="translate(454,845)"/>
<path d="M0 0 C4.95 0.99 9.9 1.98 15 3 C15 3.33 15 3.66 15 4 C9.39 3.67 3.78 3.34 -2 3 C-1.34 2.01 -0.68 1.02 0 0 Z " fill="#FA6300" transform="translate(293,826)"/>
<path d="M0 0 C4.12751449 0.60698743 7.3321148 2.03810791 11 4 C7.69564916 5.12377697 5.9493138 4.89554742 2.75 3.5625 C2.04359375 3.27503906 1.3371875 2.98757813 0.609375 2.69140625 C0.07828125 2.46324219 -0.4528125 2.23507812 -1 2 C-0.67 1.34 -0.34 0.68 0 0 Z " fill="#FD5C00" transform="translate(357,605)"/>
<path d="M0 0 C0 0.66 0 1.32 0 2 C-3.3125 3.125 -3.3125 3.125 -7 4 C-7.99 3.34 -8.98 2.68 -10 2 C-6.5980513 -0.09350689 -3.94727588 -0.17942163 0 0 Z " fill="#FC5F00" transform="translate(769,354)"/>
<path d="M0 0 C0.33 0.66 0.66 1.32 1 2 C1.99 2 2.98 2 4 2 C3.11223998 5.69900008 2.05418136 9.34550461 1 13 C0.67 13 0.34 13 0 13 C-0.125 6.25 -0.125 6.25 1 4 C0.34 3.67 -0.32 3.34 -1 3 C-0.67 2.01 -0.34 1.02 0 0 Z " fill="#EC5303" transform="translate(288,329)"/>
<path d="M0 0 C0.33 0.99 0.66 1.98 1 3 C-4.625 6 -4.625 6 -8 6 C-8 5.34 -8 4.68 -8 4 C-5.36 2.68 -2.72 1.36 0 0 Z " fill="#FD5D00" transform="translate(649,146)"/>
<path d="M0 0 C2.97 0.33 5.94 0.66 9 1 C8.67 1.99 8.34 2.98 8 4 C5.36 3.67 2.72 3.34 0 3 C0 2.01 0 1.02 0 0 Z " fill="#FC6200" transform="translate(25,1004)"/>
<path d="M0 0 C-1 3 -1 3 -4 5 C-6.6875 5.125 -6.6875 5.125 -9 5 C-4.32258065 0 -4.32258065 0 0 0 Z " fill="#FD5C00" transform="translate(698,386)"/>
<path d="M0 0 C0.99 0.33 1.98 0.66 3 1 C1 3 -1 5 -3 7 C-3.99 6.67 -4.98 6.34 -6 6 C-5.34 6 -4.68 6 -4 6 C-3.896875 5.38125 -3.79375 4.7625 -3.6875 4.125 C-3 2 -3 2 0 0 Z " fill="#FC5B02" transform="translate(828,944)"/>
<path d="M0 0 C-5.625 4 -5.625 4 -9 4 C-8 1 -8 1 -6.1875 -0.25 C-3.66056586 -1.11637742 -2.47778006 -0.88492145 0 0 Z " fill="#F54803" transform="translate(350,302)"/>
<path d="M0 0 C2.64 0.66 5.28 1.32 8 2 C7.01 3.485 7.01 3.485 6 5 C4.02 4.01 2.04 3.02 0 2 C0 1.34 0 0.68 0 0 Z " fill="#FD8A00" transform="translate(953,631)"/>
<path d="M0 0 C2.3431213 0.25561323 4.67843403 0.59270772 7 1 C7.33 1.66 7.66 2.32 8 3 C5.03 3 2.06 3 -1 3 C-0.67 2.01 -0.34 1.02 0 0 Z " fill="#FC6001" transform="translate(475,848)"/>
<path d="M0 0 C1.53202706 0.25195908 3.05257128 0.57596777 4.5625 0.9375 C5.38878906 1.13214844 6.21507812 1.32679688 7.06640625 1.52734375 C8.02353516 1.76130859 8.02353516 1.76130859 9 2 C9 2.33 9 2.66 9 3 C2.9453125 3.1953125 2.9453125 3.1953125 1 3 C0.34 2.34 -0.32 1.68 -1 1 C-0.67 0.67 -0.34 0.34 0 0 Z " fill="#FC5E00" transform="translate(440,844)"/>
<path d="M0 0 C2.31 0.66 4.62 1.32 7 2 C6.67 2.99 6.34 3.98 6 5 C4.02 4.34 2.04 3.68 0 3 C0 2.01 0 1.02 0 0 Z " fill="#FD5400" transform="translate(445,642)"/>
<path d="M0 0 C0.66 0.33 1.32 0.66 2 1 C2 1.99 2 2.98 2 4 C0.35 4.66 -1.3 5.32 -3 6 C-3.33 5.34 -3.66 4.68 -4 4 C-3.34 4 -2.68 4 -2 4 C-2 3.01 -2 2.02 -2 1 C-1.34 0.67 -0.68 0.34 0 0 Z " fill="#FA5B01" transform="translate(845,936)"/>
<path d="M0 0 C1.37478516 0.01740234 1.37478516 0.01740234 2.77734375 0.03515625 C3.69644531 0.04417969 4.61554687 0.05320312 5.5625 0.0625 C6.27277344 0.07410156 6.98304688 0.08570313 7.71484375 0.09765625 C4.91576242 2.89673758 2.58402612 2.82128608 -1.28515625 3.09765625 C-1.94515625 2.43765625 -2.60515625 1.77765625 -3.28515625 1.09765625 C-2.28515625 0.09765625 -2.28515625 0.09765625 0 0 Z " fill="#F85905" transform="translate(660.28515625,786.90234375)"/>
<path d="M0 0 C0.66 0.99 1.32 1.98 2 3 C0.1875 4.5625 0.1875 4.5625 -2 6 C-2.99 5.67 -3.98 5.34 -5 5 C-3.35 3.35 -1.7 1.7 0 0 Z " fill="#F74700" transform="translate(286,330)"/>
</svg>
