<svg width="500" height="500" viewBox="0 0 500 500" xmlns="http://www.w3.org/2000/svg">
  <defs>
    <linearGradient id="super-gradient" x1="0%" y1="0%" x2="100%" y2="100%">
      <stop offset="0%" style="stop-color:#F97316"/>
      <stop offset="100%" style="stop-color:#EA580C"/>
    </linearGradient>
  </defs>
  <rect x="40" y="40" width="420" height="420" rx="60" ry="60" fill="url(#super-gradient)"/>
  <path d="
    M 160 140 
    L 160 190 
    L 250 190 
    Q 290 190 290 220 
    Q 290 250 250 250 
    L 200 250 
    Q 140 250 140 300 
    Q 140 360 200 360 
    L 340 360 
    L 340 310 
    L 250 310 
    Q 210 310 210 280 
    Q 210 250 250 250 
    L 300 250 
    Q 360 250 360 200 
    Q 360 140 300 140 
    Z
  " fill="white"/>
</svg>